<?xml version="1.0" standalone="no"?>
<!DOCTYPE svg PUBLIC "-//W3C//DTD SVG 20010904//EN"
 "http://www.w3.org/TR/2001/REC-SVG-20010904/DTD/svg10.dtd">
<svg version="1.0" xmlns="http://www.w3.org/2000/svg"
 width="1024.000000pt" height="1024.000000pt" viewBox="0 0 1024.000000 1024.000000"
 preserveAspectRatio="xMidYMid meet">

<g transform="translate(0.000000,1024.000000) scale(0.100000,-0.100000)"
fill="#000000" stroke="none">
<path d="M4800 9614 c-14 -3 -61 -14 -104 -24 -57 -14 -115 -20 -199 -20 -107
0 -123 -2 -160 -24 -33 -19 -61 -25 -132 -29 -65 -3 -100 -10 -125 -25 -21
-12 -63 -22 -104 -26 -48 -4 -76 -11 -90 -25 -13 -12 -44 -22 -81 -27 -34 -4
-71 -15 -86 -27 -15 -10 -49 -22 -75 -24 -28 -3 -58 -14 -70 -24 -11 -10 -42
-22 -70 -25 -33 -4 -57 -14 -72 -30 -15 -16 -34 -24 -56 -24 -20 0 -40 -8 -50
-19 -10 -10 -37 -24 -60 -30 -24 -6 -49 -17 -56 -26 -7 -8 -31 -20 -53 -26
-23 -6 -52 -19 -65 -30 -14 -10 -30 -19 -36 -19 -7 0 -27 -11 -46 -25 -19 -14
-41 -25 -50 -25 -9 0 -27 -11 -39 -24 -13 -13 -38 -27 -57 -30 -18 -4 -38 -15
-44 -26 -5 -10 -20 -22 -32 -25 -31 -10 -128 -74 -128 -85 0 -5 -16 -13 -36
-19 -19 -5 -59 -29 -87 -53 -58 -49 -129 -98 -141 -98 -4 0 -32 -24 -63 -52
-83 -79 -108 -101 -148 -128 -59 -40 -100 -77 -244 -221 -144 -144 -181 -185
-221 -244 -27 -40 -49 -65 -128 -148 -28 -31 -52 -59 -52 -63 0 -12 -49 -83
-98 -141 -24 -28 -48 -68 -53 -87 -6 -20 -14 -36 -19 -36 -11 0 -75 -97 -85
-128 -3 -12 -15 -27 -25 -32 -11 -6 -22 -26 -26 -44 -3 -19 -17 -44 -30 -57
-13 -12 -24 -30 -24 -39 0 -9 -11 -31 -25 -50 -14 -19 -25 -39 -25 -46 0 -6
-9 -22 -19 -36 -11 -13 -24 -42 -30 -65 -6 -22 -18 -46 -26 -53 -9 -7 -20 -32
-26 -56 -6 -23 -20 -50 -30 -60 -11 -10 -19 -30 -19 -50 0 -22 -8 -41 -24 -56
-16 -15 -26 -39 -30 -72 -3 -28 -15 -59 -25 -70 -10 -12 -21 -42 -24 -70 -2
-26 -14 -60 -24 -75 -12 -15 -23 -52 -27 -86 -5 -37 -15 -68 -27 -81 -14 -14
-21 -42 -25 -90 -4 -41 -14 -83 -26 -104 -15 -25 -22 -60 -25 -125 -4 -71 -10
-99 -29 -132 -22 -37 -24 -53 -24 -160 0 -93 -5 -136 -22 -199 -22 -75 -23
-96 -23 -424 0 -327 1 -349 23 -427 17 -63 22 -108 22 -199 0 -105 2 -121 24
-158 18 -32 24 -61 28 -131 4 -65 11 -100 26 -125 12 -21 22 -63 26 -104 4
-49 11 -75 25 -90 13 -14 22 -43 27 -84 4 -39 14 -72 27 -88 11 -14 22 -47 25
-72 2 -26 13 -56 23 -68 10 -11 22 -42 25 -70 4 -33 14 -57 30 -72 16 -15 24
-34 24 -56 0 -20 8 -40 20 -51 11 -10 22 -33 26 -51 3 -19 14 -44 24 -57 10
-12 23 -41 29 -64 6 -23 17 -48 24 -55 7 -7 29 -47 50 -89 21 -42 46 -84 57
-94 11 -10 20 -28 20 -41 0 -13 14 -37 30 -54 17 -17 30 -39 30 -49 0 -10 9
-29 20 -42 11 -13 34 -40 50 -60 17 -20 30 -44 30 -52 0 -9 21 -42 48 -74 51
-63 102 -138 102 -151 0 -4 12 -19 27 -33 52 -46 148 -161 187 -223 22 -35
373 -386 386 -386 12 0 121 -89 186 -152 29 -28 61 -55 72 -61 10 -7 35 -21
53 -31 19 -10 59 -41 90 -67 31 -27 65 -49 74 -49 10 0 34 -15 55 -32 61 -53
83 -68 102 -68 9 0 31 -14 48 -30 17 -17 41 -30 54 -30 13 0 31 -9 41 -20 10
-11 51 -36 91 -56 40 -20 78 -42 84 -49 6 -8 26 -17 43 -21 18 -3 50 -17 73
-30 22 -13 48 -24 56 -24 8 0 32 -11 52 -25 20 -14 49 -25 65 -25 16 0 37 -10
50 -24 15 -16 37 -25 68 -29 25 -2 58 -14 74 -26 15 -12 43 -21 60 -21 18 0
51 -11 73 -24 23 -13 67 -27 99 -31 34 -4 68 -16 84 -28 19 -15 45 -22 92 -25
45 -3 74 -11 93 -25 21 -16 49 -21 127 -26 79 -5 103 -10 121 -26 19 -17 41
-21 174 -26 112 -5 164 -11 201 -25 46 -17 82 -19 425 -19 343 0 379 2 425 19
37 14 89 20 201 25 133 5 155 9 174 26 18 16 41 21 120 26 75 4 105 11 132 27
25 16 51 22 90 22 42 0 62 6 87 24 23 17 53 27 97 31 43 5 73 15 96 31 20 15
46 24 69 24 21 0 44 7 53 15 19 20 61 35 95 35 16 0 37 10 51 25 16 17 34 25
55 25 18 0 43 9 57 19 13 11 42 24 65 30 22 6 46 18 53 26 7 8 31 20 54 26 22
6 50 19 61 29 11 10 31 21 45 25 14 4 36 16 49 26 13 11 30 19 37 19 8 0 24
11 36 25 12 14 32 25 44 25 13 0 37 13 54 30 17 16 40 30 51 30 12 0 48 23 81
50 33 28 67 50 75 50 8 0 41 22 73 50 32 27 61 50 66 50 15 0 89 54 144 106
57 54 185 154 196 154 8 0 384 376 384 384 0 11 100 139 154 196 52 55 106
129 106 144 0 5 23 34 50 66 28 32 50 65 50 73 0 8 23 42 50 75 28 33 50 69
50 81 0 11 14 34 30 51 17 17 30 41 30 54 0 12 11 33 25 46 14 13 25 29 25 35
0 7 8 23 19 36 10 13 22 35 26 49 4 14 15 34 25 45 10 11 23 39 29 61 6 23 18
47 26 54 8 7 20 31 26 53 6 23 19 52 30 65 10 14 19 39 19 57 0 21 8 39 25 55
15 14 25 35 25 51 0 34 15 76 35 95 8 9 15 32 15 53 0 24 9 49 24 70 17 23 27
53 31 97 5 43 15 73 31 96 18 24 24 45 24 86 0 39 6 65 22 90 16 27 23 57 27
132 5 79 10 102 26 120 17 19 21 41 26 174 5 112 11 164 25 201 17 46 19 82
19 425 0 343 -2 379 -19 425 -14 37 -20 89 -25 201 -5 133 -9 155 -26 174 -16
18 -21 42 -26 121 -5 81 -10 106 -27 129 -17 22 -22 43 -22 88 0 46 -5 65 -24
91 -16 21 -27 53 -31 93 -5 38 -16 73 -31 96 -14 20 -24 49 -24 69 0 19 -9 46
-21 62 -12 16 -24 49 -26 74 -4 31 -13 53 -29 68 -16 15 -24 34 -24 54 0 18
-9 42 -20 55 -11 13 -23 35 -26 49 -4 14 -17 44 -29 66 -12 22 -26 54 -29 72
-4 17 -13 37 -21 43 -7 6 -29 44 -49 84 -20 40 -45 81 -56 91 -11 10 -20 28
-20 41 0 13 -13 37 -30 54 -16 17 -30 39 -30 48 0 19 -15 41 -67 102 -18 21
-33 45 -33 55 0 9 -22 43 -49 74 -26 31 -57 71 -67 90 -10 18 -24 43 -31 53
-6 11 -33 43 -61 72 -63 66 -152 174 -152 186 0 13 -377 390 -390 390 -12 0
-198 154 -220 182 -9 10 -25 25 -37 31 -11 7 -35 20 -54 31 -18 10 -59 40 -91
67 -33 27 -66 49 -75 49 -8 0 -32 13 -52 30 -20 16 -47 39 -60 50 -13 11 -32
20 -42 20 -10 0 -32 14 -49 30 -17 17 -41 30 -54 30 -13 0 -31 9 -41 20 -10
11 -52 36 -94 57 -42 21 -82 43 -89 50 -7 7 -32 18 -55 24 -23 6 -52 19 -64
29 -13 10 -38 21 -57 24 -18 4 -41 15 -51 26 -11 12 -31 20 -51 20 -22 0 -41
8 -56 24 -15 16 -39 26 -72 30 -28 3 -59 15 -70 25 -12 10 -42 21 -68 23 -25
3 -58 15 -72 26 -17 12 -50 23 -89 27 -39 5 -70 14 -83 26 -14 14 -42 21 -90
26 -42 3 -82 13 -102 26 -25 14 -58 21 -125 25 -72 4 -101 10 -133 28 -36 21
-53 24 -155 24 -84 0 -135 6 -194 21 -72 19 -111 22 -405 24 -179 2 -336 1
-350 -1z m2046 -1682 c6 -4 14 -29 18 -57 3 -27 17 -65 31 -85 18 -26 25 -49
25 -85 0 -35 6 -55 20 -70 12 -13 22 -41 26 -80 3 -35 14 -72 26 -89 11 -16
24 -54 27 -85 4 -31 17 -72 29 -91 14 -23 22 -51 22 -82 0 -35 6 -54 25 -76
19 -23 25 -41 25 -79 0 -37 6 -58 25 -83 19 -25 25 -46 25 -84 0 -37 5 -55 22
-73 16 -17 24 -42 29 -89 4 -41 13 -72 25 -85 10 -12 21 -44 25 -81 4 -34 15
-72 26 -87 11 -14 23 -52 27 -85 4 -41 14 -68 31 -88 20 -23 25 -41 25 -82 0
-39 6 -60 22 -81 13 -17 23 -47 26 -79 3 -32 12 -59 25 -73 14 -16 22 -43 26
-92 5 -48 13 -76 26 -91 11 -13 21 -44 26 -80 4 -36 15 -69 28 -86 15 -19 21
-41 21 -79 0 -42 5 -57 25 -79 20 -22 25 -37 25 -80 0 -40 6 -60 22 -81 14
-18 25 -50 29 -88 4 -34 16 -71 27 -86 11 -15 22 -53 26 -86 5 -34 15 -69 26
-80 10 -12 20 -44 24 -79 4 -34 14 -69 26 -83 11 -15 22 -49 26 -85 4 -39 13
-66 25 -77 13 -12 22 -41 28 -90 6 -45 16 -80 27 -92 10 -11 21 -45 25 -79 4
-36 15 -69 28 -86 15 -19 21 -41 21 -79 0 -42 5 -57 25 -79 21 -23 25 -37 25
-87 0 -84 -10 -85 -125 -18 -27 16 -66 36 -85 45 -19 9 -44 24 -55 34 -11 10
-34 21 -51 24 -17 4 -41 18 -53 31 -13 16 -32 25 -49 25 -18 0 -37 9 -50 25
-14 16 -32 25 -51 25 -20 0 -34 8 -45 25 -10 15 -26 25 -40 25 -13 0 -40 14
-61 30 -21 17 -47 30 -57 30 -11 0 -33 11 -50 25 -16 14 -38 25 -48 25 -11 0
-27 8 -37 19 -10 10 -33 23 -51 29 -18 6 -45 20 -59 32 -14 11 -31 20 -38 20
-6 0 -20 9 -29 19 -10 10 -32 22 -50 25 -18 4 -41 15 -50 25 -10 11 -32 22
-50 25 -18 4 -42 17 -54 31 -13 14 -33 25 -47 25 -14 0 -34 11 -47 25 -13 15
-32 25 -48 25 -15 0 -36 11 -50 25 -13 14 -35 25 -50 25 -33 0 -105 65 -114
104 -4 16 -16 41 -27 54 -13 17 -19 40 -19 77 0 38 -6 60 -20 78 -14 18 -24
51 -29 100 -6 55 -14 80 -30 96 -17 17 -21 33 -21 80 0 44 -5 65 -21 85 -15
19 -24 50 -29 97 -6 50 -14 77 -29 93 -16 17 -21 35 -21 76 0 38 -7 65 -24 94
-13 24 -26 65 -29 99 -3 35 -13 67 -26 82 -12 17 -22 50 -27 93 -4 41 -14 77
-26 93 -11 15 -23 51 -27 80 l-6 54 -38 -1 c-24 -1 -46 -9 -61 -23 -17 -16
-35 -21 -75 -21 -42 0 -56 -4 -75 -25 -17 -18 -37 -26 -82 -31 -33 -4 -77 -17
-101 -30 -26 -15 -58 -24 -85 -24 -31 0 -54 -7 -78 -25 -27 -20 -46 -25 -90
-25 -47 0 -60 -4 -80 -25 -19 -21 -33 -25 -76 -25 -40 0 -62 -6 -90 -25 -26
-18 -50 -25 -84 -25 -33 0 -58 -7 -82 -24 -23 -15 -54 -25 -92 -28 -38 -3 -64
-11 -79 -25 -14 -13 -42 -22 -80 -26 -36 -3 -67 -13 -83 -26 -34 -27 -85 -27
-108 -2 -10 11 -32 23 -48 26 -16 4 -39 18 -51 31 -12 14 -32 24 -48 24 -17 0
-35 9 -47 25 -13 17 -30 25 -49 25 -19 0 -38 9 -53 25 -14 14 -35 25 -50 25
-15 0 -36 10 -50 24 -12 14 -37 28 -54 32 -17 4 -41 17 -53 30 -13 15 -33 24
-51 24 -17 0 -38 10 -52 25 -14 14 -35 25 -50 25 -15 0 -36 11 -50 25 -13 14
-31 25 -41 25 -10 0 -31 11 -47 25 -17 14 -36 25 -44 25 -7 0 -30 11 -50 25
-20 14 -43 25 -51 25 -7 0 -28 11 -47 25 -19 14 -39 25 -45 25 -6 0 -26 11
-45 25 -19 14 -42 25 -51 25 -10 0 -31 11 -47 25 -17 14 -39 25 -50 25 -11 0
-34 11 -50 25 -17 14 -40 25 -51 25 -12 0 -32 11 -44 24 -13 14 -36 28 -53 32
-16 4 -42 18 -57 31 -16 12 -41 23 -57 23 -37 0 -45 14 -30 49 14 35 47 51
104 51 29 0 52 7 70 21 17 13 50 24 86 28 41 5 67 14 83 29 18 17 35 22 78 22
46 0 59 4 79 25 19 20 33 25 75 25 39 0 60 6 80 22 19 15 49 24 91 29 41 4 72
14 90 28 16 13 41 21 64 21 20 0 57 11 82 24 24 13 72 27 106 31 45 5 65 12
72 25 7 13 27 20 75 25 36 3 72 13 80 21 18 19 69 34 112 34 19 0 40 8 51 20
13 14 39 23 84 28 43 5 74 16 93 30 20 16 41 22 75 22 34 0 58 7 84 25 27 18
50 25 86 25 36 0 55 6 77 24 20 17 44 25 86 28 40 3 64 11 80 26 18 17 36 22
74 22 40 0 58 5 81 25 21 17 46 26 88 31 34 3 71 14 88 26 16 12 54 24 87 27
34 4 67 15 78 25 13 12 44 21 83 25 46 5 70 13 86 29 17 17 34 22 74 22 39 0
57 5 74 21 16 15 42 23 90 28 46 5 70 13 80 25 8 12 34 20 79 26 40 5 74 15
86 26 12 10 45 21 80 25 35 4 68 14 80 25 12 11 46 21 87 26 47 5 71 13 82 27
11 13 34 21 78 26 41 5 69 14 80 25 25 26 111 40 138 22z m-4187 -1769 c19
-13 39 -23 46 -23 7 0 18 -7 25 -14 6 -8 28 -20 48 -27 20 -7 47 -20 60 -30
13 -10 36 -20 52 -24 16 -3 34 -13 40 -20 6 -8 28 -19 48 -26 20 -6 46 -20 57
-29 11 -10 39 -23 62 -29 23 -7 45 -16 48 -21 4 -7 77 -44 175 -89 14 -6 36
-18 50 -25 14 -8 36 -19 50 -26 14 -6 48 -25 75 -41 28 -16 66 -36 85 -44 73
-33 166 -79 180 -91 8 -6 32 -17 52 -23 20 -7 42 -18 48 -26 6 -7 26 -17 43
-21 18 -3 38 -11 46 -18 8 -6 55 -31 105 -56 89 -45 91 -46 96 -86 4 -23 15
-54 25 -70 10 -16 22 -55 26 -87 4 -33 15 -67 25 -78 11 -12 21 -46 26 -86 5
-47 13 -70 27 -79 13 -10 21 -31 26 -78 4 -40 14 -75 26 -89 11 -14 21 -49 25
-83 4 -36 14 -67 25 -80 12 -13 22 -45 27 -86 5 -43 16 -74 30 -93 16 -19 22
-41 22 -74 0 -35 7 -56 25 -81 19 -26 25 -46 25 -88 0 -45 4 -59 25 -78 21
-19 25 -32 25 -79 0 -68 10 -90 49 -103 24 -9 32 -7 46 8 10 11 35 19 71 22
36 3 62 12 77 25 14 14 42 22 81 26 39 4 64 12 76 25 12 12 39 21 76 26 39 4
66 14 81 28 16 15 40 23 80 26 44 4 63 10 80 28 17 19 32 24 71 24 36 0 57 6
82 25 25 18 47 25 80 25 37 0 52 5 70 25 19 21 33 25 77 25 41 0 58 5 75 22
16 16 40 24 82 29 39 5 64 13 73 25 8 11 35 20 75 26 44 5 68 14 80 28 20 25
30 25 52 1 9 -10 35 -21 56 -25 23 -4 43 -14 49 -25 6 -11 26 -21 49 -25 21
-3 46 -14 56 -25 9 -10 31 -22 49 -25 17 -3 40 -15 52 -25 11 -11 39 -24 61
-30 23 -6 47 -18 54 -26 7 -8 27 -17 46 -21 19 -3 40 -15 48 -25 7 -10 28 -22
47 -25 19 -4 47 -18 62 -31 16 -12 37 -23 46 -23 10 0 29 -8 42 -19 13 -10 42
-24 64 -31 22 -7 47 -18 55 -25 19 -16 163 -85 177 -85 6 0 16 -6 22 -14 7 -8
32 -21 57 -30 24 -8 56 -24 71 -35 14 -12 33 -21 42 -21 10 0 32 -11 51 -25
19 -14 43 -25 55 -25 12 0 36 -11 55 -25 19 -14 41 -25 50 -25 9 0 31 -11 49
-24 18 -13 47 -27 65 -30 18 -4 41 -15 51 -26 10 -11 24 -20 30 -20 7 0 18 -7
25 -15 19 -23 -5 -45 -50 -45 -23 0 -48 -8 -65 -22 -17 -13 -47 -23 -79 -26
-30 -3 -65 -14 -86 -28 -21 -15 -49 -24 -73 -24 -24 0 -51 -9 -75 -25 -24 -16
-50 -25 -76 -25 -27 0 -47 -7 -63 -22 -16 -15 -42 -24 -83 -29 -36 -4 -69 -15
-86 -28 -17 -14 -41 -21 -69 -21 -31 0 -47 -6 -64 -24 -16 -17 -38 -25 -80
-30 -39 -4 -64 -13 -76 -26 -12 -13 -37 -22 -77 -26 -34 -4 -69 -15 -83 -26
-15 -11 -48 -22 -80 -25 -40 -4 -60 -12 -70 -25 -9 -14 -31 -22 -74 -27 -35
-4 -68 -15 -80 -25 -10 -10 -44 -21 -75 -25 -38 -5 -63 -15 -77 -29 -15 -17
-31 -22 -73 -22 -42 0 -57 -5 -75 -24 -16 -17 -37 -25 -78 -29 -34 -4 -64 -13
-77 -25 -12 -12 -43 -22 -75 -25 -32 -4 -63 -14 -75 -26 -13 -11 -41 -20 -74
-23 -34 -3 -61 -12 -75 -25 -13 -12 -44 -23 -76 -27 -30 -4 -65 -16 -78 -26
-13 -10 -50 -22 -81 -26 -41 -5 -63 -13 -79 -30 -17 -19 -32 -24 -71 -24 -36
0 -57 -6 -82 -25 -24 -17 -47 -25 -76 -25 -31 0 -51 -7 -72 -25 -22 -19 -41
-25 -75 -25 -33 0 -53 -6 -74 -24 -19 -15 -45 -25 -81 -28 -33 -3 -61 -12 -75
-25 -14 -13 -41 -22 -75 -25 -34 -3 -61 -12 -75 -25 -13 -12 -42 -23 -69 -25
-25 -3 -59 -14 -75 -25 -15 -11 -49 -23 -76 -25 -28 -3 -63 -16 -85 -32 -26
-17 -51 -26 -78 -26 -27 0 -51 -8 -74 -25 -27 -20 -46 -25 -90 -25 -31 0 -61
5 -68 12 -7 7 -12 35 -12 63 0 41 -5 56 -24 74 -18 17 -25 36 -28 76 -3 34
-12 62 -23 75 -12 13 -22 45 -26 82 -5 42 -13 66 -25 75 -12 9 -20 33 -25 74
-5 40 -14 67 -26 79 -13 11 -22 37 -26 69 -3 29 -15 63 -25 76 -11 14 -22 49
-26 83 -5 44 -13 65 -31 82 -20 19 -25 33 -25 70 0 32 -6 56 -19 72 -11 14
-23 49 -27 79 -4 34 -16 64 -30 82 -18 21 -24 41 -24 76 0 35 -7 56 -25 81
-17 23 -25 47 -25 76 0 27 -7 51 -22 69 -13 16 -25 51 -29 83 -4 31 -16 63
-27 76 -12 12 -22 42 -25 75 -4 30 -14 62 -23 73 -10 10 -21 44 -25 75 -4 31
-16 68 -27 82 -10 14 -22 50 -25 80 -4 32 -14 63 -25 75 -11 12 -22 43 -26 69
-3 27 -15 62 -27 78 -11 16 -24 54 -28 83 -4 30 -17 65 -29 81 -15 18 -22 42
-22 69 0 28 -8 54 -25 78 -16 24 -25 51 -25 76 0 25 -8 49 -22 67 -14 18 -25
50 -29 87 -5 40 -14 67 -28 82 -14 15 -21 35 -21 62 0 23 -9 54 -22 74 -12 19
-25 59 -29 89 -5 32 -16 62 -28 75 -13 14 -21 36 -21 58 0 19 -11 55 -24 79
-12 25 -26 66 -30 92 -4 27 -18 64 -32 84 -16 24 -24 50 -24 77 0 29 -8 53
-25 76 -16 21 -25 47 -25 70 0 23 -9 49 -25 70 -27 37 -30 52 -15 79 9 17 12
18 57 3 26 -9 63 -26 82 -39z"/>
</g>
</svg>
